<svg xmlns="http://www.w3.org/2000/svg" width="180" height="27"><g fill="none" fill-rule="evenodd"><path d="M50.301 5.123c-2.53 0-3.92 2.188-3.92 5.72 0 3.716 1.329 5.873 3.95 5.873 2.561 0 3.797-2.095 3.797-6.03-.001-3.5-1.328-5.563-3.827-5.563zM14.665 10.311l7.385 11.027V.53zM30.958 5.655h-2.396v4.374h2.519c1.82.031 2.592-.658 2.592-2.155 0-1.5-.863-2.22-2.715-2.22z"/><path fill="#000" d="M68.358.532h-6.502v20.806h15.377v-5.435h-8.875z"/><path fill="#000" d="M93.379 13.449c-.152-4.535-3.434-7.607-8.133-7.607-4.876 0-8.24 3.28-8.24 7.998 0 4.719 3.333 7.97 8.177 7.97 4.782 0 8.16-3.242 8.206-7.936-.004-.123-.013-.24-.013-.367l.003-.058zm-8.195 4.288c-1.635 0-2.417-1.364-2.417-3.896 0-2.53.75-3.863 2.355-3.863 1.698 0 2.686 1.353 2.686 3.853 0 2.624-.958 3.906-2.624 3.906z"/><path fill="#000" d="M103.795 8.062c-1.05-1.625-2.087-2.25-4.063-2.25-3.84 0-6.331 3.26-6.354 7.637.004.11.015.217.015.329 0 .032-.003.061-.003.095.128 4.24 2.474 6.755 6.342 6.755 1.85 0 2.984-.531 4.124-1.874v1.637c0 2.098-.557 2.855-2.273 2.855-1.697 0-2.015-.623-2.325-1.917h-5.357c.469 3.804 2.005 5.072 7.65 5.072 3.52 0 5.627-.906 6.894-2.906.708-1.093.954-2.156.954-4.093V6.25h-5.607v1.813h.003zm-2.305 8.62c-1.726 0-2.507-1.114-2.507-3.208 0-1.842.902-3.401 2.507-3.401 1.607 0 2.48 1.643 2.48 3.642 0 1.874-.874 2.967-2.48 2.967zM116.467 15.889l-.008-.07h.008v-9.57h-5.814v15.089h5.814v-5.45zM137.36.519l-5.874 5.73.031 10.09c0 1.72.121 2.281.554 3.095.802 1.5 2.419 2.093 5.319 2.093.987 0 2.663-.064 4.083-.188v-4.06h-1.925c-1.914 0-2.138-.25-2.19-2.064V10.59h4.113V6.249h-4.114V.519h.003zM142.752 6.25h5.814v15.088h-5.814zM156.777 17.579c-1.645 0-2.458-1.302-2.458-3.613 0-2.594.849-4.02 2.49-4.02 1.145 0 1.925.827 2.082 2.047h5.513c-.248-3.626-3.334-6.09-7.627-6.09-4.93 0-8.207 3.22-8.207 8.032 0 4.655 3.31 7.779 8.148 7.779 4.385 0 7.284-1.833 7.812-5.896h-5.515c-.248 1.531-1.348 1.76-2.238 1.76z"/><path fill="#000" d="M173.725 11.622c-2.932-.53-3.25-.719-3.25-1.436 0-.624.474-.99 1.552-.99 1.297 0 1.708.33 1.924 1.394h5.233c-.305-3.344-2.528-4.778-7.313-4.778-4.537 0-7.034 1.717-7.034 4.779 0 1.5.676 2.75 1.884 3.47.925.561 1.726.812 4.348 1.373 2.746.593 2.88.88 2.88 1.52 0 .751-.765 1.219-1.8 1.219-1.967 0-2.047-1.053-2.17-2.354h-5.452c.277 3.675 2.017 5.896 7.56 5.896 4.72 0 7.498-1.938 7.498-5.28 0-.72-.155-1.406-.43-2.03-.647-1.377-2.222-2.188-5.43-2.783zM124.021 21.715c4.719 0 7.496-1.938 7.496-5.28 0-.721-.152-1.407-.43-2.03-.649-1.376-2.222-2.188-5.43-2.782-2.932-.53-3.25-.719-3.25-1.436 0-.624.472-.99 1.551-.99 1.296 0 1.71.383 1.925 1.394h5.233c-.307-3.292-2.528-4.778-7.311-4.778-4.54 0-7.04 1.717-7.04 4.779 0 1.5.68 2.75 1.885 3.47.927.562 1.728.811 4.351 1.374 2.747.593 2.88.878 2.88 1.52 0 .75-.766 1.218-1.802 1.218-1.964 0-2.048-1.103-2.17-2.354h-5.445v.07c.3 3.58 2.05 5.825 7.557 5.825z"/><path fill="#C00" d="M22.05.531h-7.481s-3.053 5.03-3.392 5.812C10.715 5.28 7.37.531 7.37.531H0l7.475 9.78L.007 21.338h7.54l1.717-3.279a28.35 28.35 0 0 0 1.636-3.092c.463 1.152.803 1.81 1.512 2.998l2.006 3.373h7.632L14.665 10.31 22.05.531zM37.017 1.812C35.597.845 34.054.532 30.69.532h-8.64v20.807h6.512v-6.404h3.67c2.717 0 4.414-.593 5.74-1.907 1.327-1.343 2.038-3.092 2.038-5.123 0-2.624-1.081-4.812-2.993-6.093zm-5.936 8.217h-2.52V5.655h2.397c1.852 0 2.715.719 2.715 2.22 0 1.496-.771 2.186-2.592 2.154z"/><path fill="#C00" d="M50.393 0C44.006 0 39.81 4.343 39.81 10.936c0 6.592 4.227 10.903 10.521 10.903 6.17 0 10.337-4.343 10.337-10.872C60.668 4.437 56.533 0 50.393 0zm-.062 16.716c-2.621 0-3.95-2.157-3.95-5.874 0-3.53 1.39-5.719 3.92-5.719 2.499 0 3.827 2.064 3.827 5.563-.001 3.936-1.236 6.03-3.797 6.03z"/></g></svg>